<svg xmlns="http://www.w3.org/2000/svg" viewBox="0 0 200 47.452"><title>logo</title><path d="M40.865 25.716V11.638h3.071v2.408h.048a4.157 4.157 0 0 1 3.927-2.68v3.544a4.59 4.59 0 0 0-.6-.022 3.986 3.986 0 0 0-3.111 2.274v8.562zm-8.044-7.206a2.327 2.327 0 1 1 2.289-2.363v.037a2.312 2.312 0 0 1-2.289 2.327m-.621 6.93c3.227 0 4.225.975 4.225 1.623 0 .488-.744 1.571-2.877 1.571-2.8 0-3.722-.488-3.722-1.571 0-.6.54-1.623 2.364-1.623m4.096-12.831a5.625 5.625 0 0 0-3.451-1.243c-3.629 0-5.509 2.438-5.509 4.9a4.6 4.6 0 0 0 2.074 3.717c-.622.19-2.181 1.221-2.181 2.572 0 1.511 1.426 1.861 2.07 2.271v.056a2.479 2.479 0 0 0-2.53 2.427v.179c0 2.215 2.472 3.35 6.239 3.35 4.467 0 6.477-2.166 6.477-4.162 0-5.636-9.194-2.55-9.194-4.839 0-.811 1.158-.864 2.606-.864 3.5 0 5.271-1.891 5.271-4.553a4.1 4.1 0 0 0-.744-2.483 4.4 4.4 0 0 1 2.155-.328v-2.244a3.6 3.6 0 0 0-3.276 1.243m15.035 4.329c.052-1.947 1.076-3.078 2.684-3.078s2.635 1.117 2.688 3.078zm2.74-5.584c-3.793 0-6.075 2.844-6.075 7.315s2.282 7.315 5.919 7.315c2.684 0 4.567-.86 5.855-2.874l-2.423-1.51a3.684 3.684 0 0 1-3.116 1.675c-1.556 0-2.851-1.135-2.9-4.057h8.457v-1.382c0-3.376-2.044-6.5-5.7-6.47M68.75 22.005a5.733 5.733 0 0 1-3.06 1.489 1.526 1.526 0 0 1-1.619-1.653c0-1.977 2.449-2.434 4.679-2.866zm3.35 1.679V17.05c0-4.218-1.612-5.6-5.379-5.684a6.233 6.233 0 0 0-5.211 2.572l2.144 1.649a3.552 3.552 0 0 1 3.067-1.731c1.184 0 2.044.6 2.044 1.679v1.191c-5.424.651-8.014 2.33-8.014 5.524a3.58 3.58 0 0 0 3.8 3.722 7.237 7.237 0 0 0 4.349-1.488l.22 1.217h3.25a6.4 6.4 0 0 1-.268-2.032m2.889-12.031V7h3.35v4.638h2.743v2.7h-2.741V22.3c0 .744.372.975 1.206.975a7.534 7.534 0 0 0 1.534-.268v2.766a22.934 22.934 0 0 1-2.635.212c-2.472 0-3.443-1.251-3.443-3.25v-8.394h-1.941v-2.7zm20.82-9.381C90.016-1.6 73.358-1.007 43.1 7.912c29.649-5.733 46.464-4.5 52.509.264a1.931 1.931 0 0 1 .691 1.884c.156-.275.294-.555.421-.83q.119-.246.22-.5c1.034-2.512.933-4.876-1.129-6.473zm32.91 33.61a1.437 1.437 0 0 0-1.447-1.426q-.071 0-.142.008c-10.445.145-27.918-1.7-35.762-6.328a10.955 10.955 0 0 1-1.779-1.459 4.976 4.976 0 0 1-.372-.424 7.251 7.251 0 0 1-.927-1.549 6.019 6.019 0 0 1 .99-6.753l.074-.119s-5.5 4.62-5.5 10.177c0 5.278 1.921 8.562 7.478 10.918 7.661 3.685 19.87 5.211 31.913 5.7a4.073 4.073 0 0 0 2.233-.86c1.284-1.333 1.683-2.5 2.673-4.925a6.488 6.488 0 0 0 .569-2.96zM97.033 2.257C99.1 3.854 99.2 6.218 98.15 8.738q-.1.249-.223.5c-.127.275-.264.555-.421.83a23.559 23.559 0 0 1-4.69 5.718c-.257.216-.5.428-.726.644l-.45.372a9.556 9.556 0 0 0-1.165 1.117 6.019 6.019 0 0 0-.99 6.753 7.24 7.24 0 0 0 .927 1.549c.119.149.249.287.372.424a.864.864 0 0 1 .171-.979c.141-.145.316-.316.514-.514l.048-.048c.975-.975 2.55-2.531 4.56-4.467 3.477-3.35 5.479-6.54 5.613-11.231s-4.657-7.149-4.657-7.149zm6.775 23.649v-14.64h3.209v2.505h.041a5.446 5.446 0 0 1 1.589-2.029 4.4 4.4 0 0 1 2.52-.744v3.689a1.448 1.448 0 0 0-.283-.03h-.339a2.542 2.542 0 0 0-1.24.324 5.409 5.409 0 0 0-1.042.744 4.861 4.861 0 0 0-.718.789 1.236 1.236 0 0 0-.268.521v8.9zm20.243-14.64v14.64h-3.22v-1.574a21.885 21.885 0 0 1-2.1 1.266 5.059 5.059 0 0 1-2.408.592 3.96 3.96 0 0 1-3.268-1.321 5.5 5.5 0 0 1-1.068-3.577V11.266h3.492v9.507a3.354 3.354 0 0 0 .45 2.04 1.645 1.645 0 0 0 1.362.566 3.663 3.663 0 0 0 1.984-.521 5.956 5.956 0 0 0 1.281-1.027V11.266zm2.2 14.64v-14.64h3.209v1.578a21.71 21.71 0 0 1 2.1-1.266 5.051 5.051 0 0 1 2.408-.592 3.949 3.949 0 0 1 3.265 1.321 5.543 5.543 0 0 1 1.072 3.577V25.91H134.8v-9.518a3.355 3.355 0 0 0-.45-2.04A1.645 1.645 0 0 0 133 13.8a3.659 3.659 0 0 0-1.984.521 5.889 5.889 0 0 0-1.281 1.027v10.558zm72.446 6.5a1.292 1.292 0 1 1-1.277 1.306V33.7a1.269 1.269 0 0 1 1.247-1.292zm0 .2a1.094 1.094 0 1 0 1.029 1.029 1.094 1.094 0 0 0-1.033-1.028zm-.242 1.843h-.227v-1.44a2.352 2.352 0 0 1 .4-.034.744.744 0 0 1 .443.108.335.335 0 0 1 .13.3.372.372 0 0 1-.279.35c.127.022.212.138.238.35a1.117 1.117 0 0 0 .089.372H199a1.169 1.169 0 0 1-.1-.372.268.268 0 0 0-.279-.256h-.186zm0-.8h.179c.19 0 .346-.071.346-.246s-.093-.253-.346-.253a1.084 1.084 0 0 0-.168 0zm-61.7 4.08a3.838 3.838 0 0 0-.648-1.005 1.53 1.53 0 0 0-1.184-.413 1.489 1.489 0 0 0-1.381.744 4.585 4.585 0 0 0-.447 2.315 4.6 4.6 0 0 0 .458 2.315 1.575 1.575 0 0 0 1.444.744 1.638 1.638 0 0 0 1.185-.429 4.288 4.288 0 0 0 .789-1.057l1.686.949a4.683 4.683 0 0 1-1.56 1.8 3.927 3.927 0 0 1-2.17.529 4.1 4.1 0 0 1-1.7-.342 3.507 3.507 0 0 1-1.273-.968 4.4 4.4 0 0 1-.8-1.526 7.4 7.4 0 0 1 0-4.017 4.4 4.4 0 0 1 .8-1.526 3.51 3.51 0 0 1 1.273-.968 4.1 4.1 0 0 1 1.7-.342 4.046 4.046 0 0 1 2.3.655 3.458 3.458 0 0 1 1.374 1.839zm2.461 1.634a6.76 6.76 0 0 1 .279-2.01 4.4 4.4 0 0 1 .8-1.526 3.51 3.51 0 0 1 1.273-.968 4.43 4.43 0 0 1 3.41 0 3.514 3.514 0 0 1 1.273.968 4.4 4.4 0 0 1 .8 1.526 7.393 7.393 0 0 1 0 4.017 4.4 4.4 0 0 1-.8 1.526 3.51 3.51 0 0 1-1.273.968 4.43 4.43 0 0 1-3.41 0 3.507 3.507 0 0 1-1.273-.968 4.4 4.4 0 0 1-.8-1.526 6.756 6.756 0 0 1-.279-2.003zm5.885 0a4.581 4.581 0 0 0-.45-2.315 1.664 1.664 0 0 0-2.762 0 4.585 4.585 0 0 0-.447 2.315 4.693 4.693 0 0 0 .447 2.315 1.664 1.664 0 0 0 2.762 0 4.613 4.613 0 0 0 .447-2.315zm3.172 4.664V34.7h2.027v1.005a5.532 5.532 0 0 1 1.24-.878 3.488 3.488 0 0 1 1.56-.305 2.814 2.814 0 0 1 1.362.342 2.107 2.107 0 0 1 .934 1.024 6.59 6.59 0 0 1 .61-.54 3.682 3.682 0 0 1 .707-.432 4.322 4.322 0 0 1 .852-.287 4.634 4.634 0 0 1 1.039-.108 2.572 2.572 0 0 1 .744.127 1.951 1.951 0 0 1 .744.439 2.375 2.375 0 0 1 .566.86 3.637 3.637 0 0 1 .223 1.374v6.7h-2.233v-6.5a1.314 1.314 0 0 0-.253-.871 1.176 1.176 0 0 0-.86-.331 1.839 1.839 0 0 0-.949.324 6.273 6.273 0 0 0-.916.681v6.7h-2.23v-6.5a1.314 1.314 0 0 0-.253-.871 1.176 1.176 0 0 0-.86-.331 1.839 1.839 0 0 0-.949.324 6.273 6.273 0 0 0-.916.681v6.7zm14.316-9.327h2.133v.86a4.3 4.3 0 0 1 1.057-.744 2.933 2.933 0 0 1 1.329-.287 3.328 3.328 0 0 1 1.634.372 3.373 3.373 0 0 1 1.165 1.068 4.973 4.973 0 0 1 .7 1.616 8.361 8.361 0 0 1 .235 2.029 5.956 5.956 0 0 1-.242 1.686 4.687 4.687 0 0 1-.718 1.489 3.7 3.7 0 0 1-1.176 1.039 3.194 3.194 0 0 1-1.6.395 2.524 2.524 0 0 1-.61-.082 4.2 4.2 0 0 1-.637-.216 2.93 2.93 0 0 1-.584-.331 2.047 2.047 0 0 1-.432-.413h-.037v4.27h-2.233zm2.233 6.924a4.467 4.467 0 0 0 .744.547 1.891 1.891 0 0 0 .96.242 1.761 1.761 0 0 0 1.541-.782 5.051 5.051 0 0 0 0-4.538 1.761 1.761 0 0 0-1.541-.782 2.006 2.006 0 0 0-.61.082 1.984 1.984 0 0 0-.439.2 1.9 1.9 0 0 0-.342.268 2.468 2.468 0 0 1-.331.279zm11.867 2.4l-.145-.808a6.659 6.659 0 0 1-1.355.744 4.292 4.292 0 0 1-1.552.261 2.755 2.755 0 0 1-1.117-.2 2.233 2.233 0 0 1-.789-.555 2.427 2.427 0 0 1-.476-.789 2.662 2.662 0 0 1-.16-.923 2.792 2.792 0 0 1 1.31-2.468 9.455 9.455 0 0 1 4.035-1.191v-.789a.968.968 0 0 0-.372-.826 1.6 1.6 0 0 0-.979-.287 2.047 2.047 0 0 0-1.254.35 3.7 3.7 0 0 0-.789.8l-1.433-1.094a2.546 2.546 0 0 1 .592-.692 4.232 4.232 0 0 1 .852-.547 4.817 4.817 0 0 1 .994-.372 3.871 3.871 0 0 1 1.042-.108 6.291 6.291 0 0 1 1.616.216 2.557 2.557 0 0 1 1.117.637 2.628 2.628 0 0 1 .648 1.158 6.458 6.458 0 0 1 .2 1.757v4.4a6.621 6.621 0 0 0 .037.7 2.818 2.818 0 0 0 .145.648zm-.235-4.467q-.555.108-1.117.235a5.092 5.092 0 0 0-1.005.331 2.092 2.092 0 0 0-.744.529 1.191 1.191 0 0 0-.279.808 1.053 1.053 0 0 0 .305.808 1.08 1.08 0 0 0 .771.287 1.7 1.7 0 0 0 .555-.1 3.771 3.771 0 0 0 .555-.242 4.061 4.061 0 0 0 .51-.324q.242-.179.421-.324zm3.823 4.467V34.7h2.044v1.005a13.9 13.9 0 0 1 1.336-.808 3.216 3.216 0 0 1 1.534-.372 2.516 2.516 0 0 1 2.081.845 3.521 3.521 0 0 1 .681 2.278v6.388h-2.233v-6.069a2.137 2.137 0 0 0-.287-1.3 1.05 1.05 0 0 0-.86-.35 2.33 2.33 0 0 0-1.266.331 3.767 3.767 0 0 0-.815.655v6.726zm8.376 1.5a2.822 2.822 0 0 0 .465.063h.465a2.126 2.126 0 0 0 .923-.171 1.2 1.2 0 0 0 .547-.566q.16-.342.261-.573a1.325 1.325 0 0 0 .1-.521 1.664 1.664 0 0 0-.1-.54q-.1-.287-.19-.573l-2.494-7.966h2.233l1.541 5.74h.037l1.6-5.74h2.233l-2.941 9.347a14.058 14.058 0 0 1-.744 1.66 3.98 3.98 0 0 1-.744 1.042 2.312 2.312 0 0 1-.923.54 4.2 4.2 0 0 1-1.195.153h-.644a4.3 4.3 0 0 1-.432-.052zM1.34 11.984v-3.22h2.319v3.22h1.91v1.861H3.67v5.513a.6.6 0 0 0 .2.532 1.143 1.143 0 0 0 .637.141 2.263 2.263 0 0 0 .551-.067l.532-.123v1.91l-.916.1a8.532 8.532 0 0 1-.916.048 2.476 2.476 0 0 1-1.861-.6 2.334 2.334 0 0 1-.562-1.649v-5.8H0V12zm5.211 9.73V8.2h2.32v4.839a8.327 8.327 0 0 1 1.243-.841 3.142 3.142 0 0 1 1.563-.395 2.626 2.626 0 0 1 2.17.878 3.674 3.674 0 0 1 .711 2.379v6.663h-2.319V15.4a2.233 2.233 0 0 0-.3-1.355 1.094 1.094 0 0 0-.9-.372 2.431 2.431 0 0 0-1.318.346 3.92 3.92 0 0 0-.852.681v7.017zm11.324-4.489a3.347 3.347 0 0 0 .618 2.163 1.82 1.82 0 0 0 1.4.64 2.185 2.185 0 0 0 1.273-.328 4.839 4.839 0 0 0 .9-.834l1.683 1.046a4 4 0 0 1-1.675 1.515 5.643 5.643 0 0 1-2.4.462 3.987 3.987 0 0 1-1.712-.372 3.637 3.637 0 0 1-1.292-1.009 4.675 4.675 0 0 1-.808-1.563 7.717 7.717 0 0 1 0-4.191 4.586 4.586 0 0 1 .834-1.589 3.663 3.663 0 0 1 1.329-1.009 4.27 4.27 0 0 1 1.779-.372 3.782 3.782 0 0 1 1.694.372 3.722 3.722 0 0 1 1.243.983 4.326 4.326 0 0 1 .767 1.433 5.494 5.494 0 0 1 .261 1.694v.953zm3.741-1.571a2.442 2.442 0 0 0-.547-1.582 1.861 1.861 0 0 0-2.632-.045l-.045.045a2.434 2.434 0 0 0-.532 1.571z" fill="#fff"/></svg>